<?xml version="1.0" encoding="utf-8" ?>
<svg baseProfile="full" height="210" version="1.1" width="210" xmlns="http://www.w3.org/2000/svg" xmlns:ev="http://www.w3.org/2001/xml-events" xmlns:xlink="http://www.w3.org/1999/xlink"><defs /><g stroke="black" stroke-linecap="round" stroke-width="0.25"><g fill="#BB99DD"><rect height="25" width="25" x="30" y="105" /><rect height="25" width="25" x="5" y="130" /><rect height="25" width="25" x="30" y="130" /><rect height="25" width="25" x="55" y="130" /><rect height="25" width="25" x="30" y="155" /></g><g fill="#CCCC88"><rect height="25" width="25" x="5" y="155" /><rect height="25" width="25" x="5" y="180" /><rect height="25" width="25" x="30" y="180" /><rect height="25" width="25" x="55" y="180" /><rect height="25" width="25" x="80" y="180" /></g><g fill="#DDBB99"><rect height="25" width="25" x="80" y="130" /><rect height="25" width="25" x="55" y="155" /><rect height="25" width="25" x="80" y="155" /><rect height="25" width="25" x="105" y="155" /><rect height="25" width="25" x="105" y="180" /></g><g fill="#88CCCC"><rect height="25" width="25" x="5" y="80" /><rect height="25" width="25" x="30" y="80" /><rect height="25" width="25" x="55" y="80" /><rect height="25" width="25" x="5" y="105" /><rect height="25" width="25" x="55" y="105" /></g><g fill="#99BBDD"><rect height="25" width="25" x="5" y="5" /><rect height="25" width="25" x="5" y="30" /><rect height="25" width="25" x="5" y="55" /><rect height="25" width="25" x="30" y="55" /><rect height="25" width="25" x="55" y="55" /></g><g fill="#DD99BB"><rect height="25" width="25" x="30" y="5" /><rect height="25" width="25" x="30" y="30" /><rect height="25" width="25" x="55" y="30" /><rect height="25" width="25" x="80" y="30" /><rect height="25" width="25" x="80" y="55" /></g><g fill="#AAEEAA"><rect height="25" width="25" x="55" y="5" /><rect height="25" width="25" x="80" y="5" /><rect height="25" width="25" x="105" y="5" /><rect height="25" width="25" x="105" y="30" /><rect height="25" width="25" x="130" y="30" /></g><g fill="#99DDBB"><rect height="25" width="25" x="130" y="5" /><rect height="25" width="25" x="155" y="5" /><rect height="25" width="25" x="180" y="5" /><rect height="25" width="25" x="155" y="30" /><rect height="25" width="25" x="155" y="55" /></g><g fill="#AAAAEE"><rect height="25" width="25" x="105" y="55" /><rect height="25" width="25" x="130" y="55" /><rect height="25" width="25" x="130" y="80" /><rect height="25" width="25" x="155" y="80" /><rect height="25" width="25" x="155" y="105" /></g><g fill="#EEAAAA"><rect height="25" width="25" x="180" y="30" /><rect height="25" width="25" x="180" y="55" /><rect height="25" width="25" x="180" y="80" /><rect height="25" width="25" x="180" y="105" /><rect height="25" width="25" x="180" y="130" /></g><g fill="#CC88CC"><rect height="25" width="25" x="130" y="105" /><rect height="25" width="25" x="105" y="130" /><rect height="25" width="25" x="130" y="130" /><rect height="25" width="25" x="130" y="155" /><rect height="25" width="25" x="130" y="180" /></g><g fill="#BBDD99"><rect height="25" width="25" x="155" y="130" /><rect height="25" width="25" x="155" y="155" /><rect height="25" width="25" x="180" y="155" /><rect height="25" width="25" x="155" y="180" /><rect height="25" width="25" x="180" y="180" /></g><path d="M 5 5 l 25 0 M 30 5 l 25 0 M 55 5 l 25 0 M 80 5 l 25 0 M 105 5 l 25 0 M 130 5 l 25 0 M 155 5 l 25 0 M 180 5 l 25 0 M 55 30 l 25 0 M 80 30 l 25 0 M 130 30 l 25 0 M 180 30 l 25 0 M 30 55 l 25 0 M 55 55 l 25 0 M 105 55 l 25 0 M 130 55 l 25 0 M 5 80 l 25 0 M 30 80 l 25 0 M 55 80 l 25 0 M 80 80 l 25 0 M 105 80 l 25 0 M 155 80 l 25 0 M 30 105 l 25 0 M 130 105 l 25 0 M 5 130 l 25 0 M 55 130 l 25 0 M 80 130 l 25 0 M 105 130 l 25 0 M 155 130 l 25 0 M 5 155 l 25 0 M 55 155 l 25 0 M 105 155 l 25 0 M 180 155 l 25 0 M 30 180 l 25 0 M 55 180 l 25 0 M 80 180 l 25 0 M 5 205 l 25 0 M 30 205 l 25 0 M 55 205 l 25 0 M 80 205 l 25 0 M 105 205 l 25 0 M 130 205 l 25 0 M 155 205 l 25 0 M 180 205 l 25 0 M 5 5 l 0 25 M 30 5 l 0 25 M 55 5 l 0 25 M 130 5 l 0 25 M 205 5 l 0 25 M 5 30 l 0 25 M 30 30 l 0 25 M 105 30 l 0 25 M 155 30 l 0 25 M 180 30 l 0 25 M 205 30 l 0 25 M 5 55 l 0 25 M 80 55 l 0 25 M 105 55 l 0 25 M 155 55 l 0 25 M 180 55 l 0 25 M 205 55 l 0 25 M 5 80 l 0 25 M 80 80 l 0 25 M 130 80 l 0 25 M 180 80 l 0 25 M 205 80 l 0 25 M 5 105 l 0 25 M 30 105 l 0 25 M 55 105 l 0 25 M 80 105 l 0 25 M 130 105 l 0 25 M 155 105 l 0 25 M 180 105 l 0 25 M 205 105 l 0 25 M 5 130 l 0 25 M 80 130 l 0 25 M 105 130 l 0 25 M 155 130 l 0 25 M 180 130 l 0 25 M 205 130 l 0 25 M 5 155 l 0 25 M 30 155 l 0 25 M 55 155 l 0 25 M 130 155 l 0 25 M 155 155 l 0 25 M 205 155 l 0 25 M 5 180 l 0 25 M 105 180 l 0 25 M 130 180 l 0 25 M 155 180 l 0 25 M 205 180 l 0 25" stroke-width="3" /></g></svg>